<svg width="24" height="24" viewBox="0 0 24 24" fill="none" xmlns="http://www.w3.org/2000/svg">
<path fill-rule="evenodd" clip-rule="evenodd" d="M9.9834 16.3611C6.78556 16.3611 4.05469 16.8446 4.05469 18.7809C4.05469 20.7173 6.76824 21.2181 9.9834 21.2181C13.1812 21.2181 15.9113 20.7338 15.9113 18.7982C15.9113 16.8627 13.1986 16.3611 9.9834 16.3611Z" stroke="#E54242" stroke-width="1.5" stroke-linecap="round" stroke-linejoin="round"/>
<path fill-rule="evenodd" clip-rule="evenodd" d="M9.98678 13.5997C12.0853 13.5997 13.7862 11.898 13.7862 9.79945C13.7862 7.70089 12.0853 6 9.98678 6C7.88823 6 6.18655 7.70089 6.18655 9.79945C6.17946 11.8909 7.86933 13.5926 9.96001 13.5997H9.98678Z" stroke="#E54242" stroke-width="1.42857" stroke-linecap="round" stroke-linejoin="round"/>
<path d="M20 3.5L17 6.5" stroke="#E54242" stroke-width="1.5" stroke-linecap="round"/>
<path d="M17 3.5L20 6.5" stroke="#E54242" stroke-width="1.5" stroke-linecap="round"/>
</svg>
