<svg width="25" height="24" viewBox="0 0 25 24" fill="none" xmlns="http://www.w3.org/2000/svg">
<path d="M2.6235 7.77998V17.51C2.6235 19.41 3.9735 20.19 5.6135 19.25L7.9635 17.91C8.47351 17.62 9.32351 17.59 9.85351 17.86L15.1035 20.49C15.6335 20.75 16.4835 20.73 16.9935 20.44L21.3235 17.96C21.8735 17.64 22.3335 16.86 22.3335 16.22V6.48998C22.3335 4.58998 20.9835 3.80998 19.3435 4.74998L16.9935 6.08998C16.4835 6.37998 15.6335 6.40998 15.1035 6.13998L9.85351 3.51998C9.32351 3.25998 8.47351 3.27998 7.9635 3.56998L3.6335 6.04998C3.0735 6.36998 2.6235 7.14998 2.6235 7.77998Z" fill="#125CED" stroke="#004DE1" stroke-width="1.5" stroke-linecap="round" stroke-linejoin="round"/>
<path d="M8.89349 4V17V4Z" fill="#125CED"/>
<path d="M8.89349 4V17" stroke="#004DE1" stroke-width="1.5" stroke-linecap="round" stroke-linejoin="round"/>
<path d="M16.0635 6.62012V20.0001V6.62012Z" fill="#125CED"/>
<path d="M16.0635 6.62012V20.0001" stroke="#004DE1" stroke-width="1.5" stroke-linecap="round" stroke-linejoin="round"/>
</svg>
