<svg width="25" height="24" viewBox="0 0 25 24" fill="none" xmlns="http://www.w3.org/2000/svg">
<path d="M2.62332 7.77998V17.51C2.62332 19.41 3.97332 20.19 5.61332 19.25L7.96332 17.91C8.47332 17.62 9.32332 17.59 9.85332 17.86L15.1033 20.49C15.6333 20.75 16.4833 20.73 16.9933 20.44L21.3233 17.96C21.8733 17.64 22.3333 16.86 22.3333 16.22V6.48998C22.3333 4.58998 20.9833 3.80998 19.3433 4.74998L16.9933 6.08998C16.4833 6.37998 15.6333 6.40998 15.1033 6.13998L9.85332 3.51998C9.32332 3.25998 8.47332 3.27998 7.96332 3.56998L3.63332 6.04998C3.07332 6.36998 2.62332 7.14998 2.62332 7.77998Z" fill="white" stroke="#A5A6A9" stroke-width="1.5" stroke-linecap="round" stroke-linejoin="round"/>
<path d="M8.89333 4V17V4Z" fill="white"/>
<path d="M8.89333 4V17" stroke="#A5A6A9" stroke-width="1.5" stroke-linecap="round" stroke-linejoin="round"/>
<path d="M16.0633 6.62012V20.0001V6.62012Z" fill="white"/>
<path d="M16.0633 6.62012V20.0001" stroke="#A5A6A9" stroke-width="1.5" stroke-linecap="round" stroke-linejoin="round"/>
</svg>
