<svg width="25" height="24" viewBox="0 0 25 24" fill="none" xmlns="http://www.w3.org/2000/svg">
<path d="M13.9264 3.59997L5.71636 12.29C5.40636 12.62 5.10636 13.27 5.04636 13.72L4.67636 16.96C4.54636 18.13 5.38636 18.93 6.54636 18.73L9.76636 18.18C10.2164 18.1 10.8464 17.77 11.1564 17.43L19.3664 8.73997C20.7864 7.23997 21.4264 5.52997 19.2164 3.43997C17.0164 1.36997 15.3464 2.09997 13.9264 3.59997Z" fill="#125CED" stroke="#125CED" stroke-width="1.5" stroke-miterlimit="10" stroke-linecap="round" stroke-linejoin="round"/>
<path d="M12.5566 5.05005C12.9866 7.81005 15.2266 9.92005 18.0066 10.2L12.5566 5.05005Z" fill="#125CED"/>
<path d="M12.5566 5.05005C12.9866 7.81005 15.2266 9.92005 18.0066 10.2" stroke="#004DE1" stroke-width="1.5" stroke-miterlimit="10" stroke-linecap="round" stroke-linejoin="round"/>
<path d="M10.6665 22H22.6665" stroke="#125CED" stroke-width="1.5" stroke-miterlimit="10" stroke-linecap="round" stroke-linejoin="round"/>
</svg>
